<?xml version="1.0" encoding="UTF-8"?>
<svg version="1.1" xmlns="http://www.w3.org/2000/svg" width="250" height="250">
<path d="M0 0 C0.97356445 0.28085449 0.97356445 0.28085449 1.96679688 0.56738281 C15.20175976 4.52148163 26.57903051 11.01888812 37 20 C37.67417969 20.52980469 38.34835938 21.05960938 39.04296875 21.60546875 C53.73532438 33.4825227 64.24019382 52.91752023 69 71 C69.12109375 73.890625 69.12109375 73.890625 69 76 C65.89743488 76.8393758 62.79270556 77.6704505 59.6875 78.5 C58.36588867 78.85771484 58.36588867 78.85771484 57.01757812 79.22265625 C56.17001953 79.44824219 55.32246094 79.67382812 54.44921875 79.90625 C53.66893311 80.11572266 52.88864746 80.32519531 52.0847168 80.54101562 C50 81 50 81 47 81 C46.59910156 79.79085937 46.19820312 78.58171875 45.78515625 77.3359375 C38.40988864 55.81260266 27.04667042 38.48069715 6.14599609 28.07714844 C-18.1009106 16.7427578 -47.72437957 16.41765819 -72.8125 25.3203125 C-91.12248055 32.54170569 -104.50303998 45.93188275 -112.76171875 63.640625 C-126.84028906 96.97527511 -127.52739432 139.12156841 -115 173 C-111.05738556 182.70119447 -106.08527386 191.23511824 -99 199 C-98.47148438 199.62003906 -97.94296875 200.24007812 -97.3984375 200.87890625 C-85.23431414 214.2714263 -65.45712334 221.25244191 -47.7421875 222.16845703 C-21.94588224 223.00070824 2.12849984 220.63058142 21.8984375 202.2578125 C31.19100251 192.27435046 35.63743057 180.76311613 35.47290039 167.27905273 C35.06989709 157.5206936 31.82878163 149.09142708 25 142 C22.43413785 139.8370801 19.78713853 137.86752429 17 136 C16.98582031 136.57105469 16.97164062 137.14210937 16.95703125 137.73046875 C16.11135546 152.10695717 9.06286401 166.00598766 -1.3125 175.890625 C-14.87275159 186.53384572 -30.34099579 188.30744092 -47 187 C-58.96133323 185.35982646 -69.87386927 179.58793284 -77.5 170.18359375 C-84.8748765 159.44777093 -86.2691407 148.76950797 -85 136 C-83.01717397 127.87308075 -78.97000285 121.75032742 -73 116 C-72.46632813 115.45730469 -71.93265625 114.91460937 -71.3828125 114.35546875 C-59.82328468 103.4319915 -43.30650543 101.48433379 -28.10424805 101.71875 C-26.04001954 101.75034407 -23.97655772 101.75978429 -21.91210938 101.765625 C-16.17522677 101.80500794 -10.65635487 101.92669604 -5 103 C-9.00863693 90.47096136 -9.00863693 90.47096136 -18.2421875 81.73046875 C-27.25007116 77.55140141 -37.27070561 76.3067095 -46.99609375 78.75390625 C-54.19295734 81.54720947 -59.60241474 85.51200293 -65 91 C-67.84468732 89.07876797 -70.673558 87.13545327 -73.5 85.1875 C-74.31082031 84.64029297 -75.12164062 84.09308594 -75.95703125 83.52929688 C-76.72402344 82.99755859 -77.49101563 82.46582031 -78.28125 81.91796875 C-78.99345703 81.43094482 -79.70566406 80.9439209 -80.43945312 80.44213867 C-81.21192383 79.72828003 -81.21192383 79.72828003 -82 79 C-82 73.55599598 -77.00609789 70.01547218 -73.328125 66.3203125 C-61.38915024 55.34782617 -46.38079416 53.30158316 -30.7890625 53.71484375 C-17.51860566 54.33551678 -6.01954376 59.12996302 3.609375 68.3046875 C12.85322729 78.72667782 18.16229017 92.53220926 18.25 106.5 C18.1675 107.655 18.085 108.81 18 110 C18.88171875 110.26683594 19.7634375 110.53367187 20.671875 110.80859375 C35.40175507 116.0816142 47.11692037 128.20420423 54 142 C61.19157831 160.1974744 60.94428394 179.30202991 53.64453125 197.3515625 C44.44058929 216.84516612 27.07888916 232.38485656 6.98632812 240.03125 C-17.69594313 248.71345597 -47.87481139 249.40371781 -73 242 C-74.26070313 241.63777344 -75.52140625 241.27554688 -76.8203125 240.90234375 C-89.60616172 236.75748054 -100.96304811 229.91196954 -111 221 C-112.02673828 220.09701172 -112.02673828 220.09701172 -113.07421875 219.17578125 C-137.76084242 196.04116536 -145.84799532 159.61020739 -146.97851562 127.15307617 C-147.70509796 88.65987157 -139.76161845 50.58862985 -112.5 22.125 C-100.88251178 11.03282429 -85.52597028 3.03753247 -70 -1 C-68.89140625 -1.29777344 -67.7828125 -1.59554688 -66.640625 -1.90234375 C-45.60811096 -6.55954329 -20.63336251 -6.06339943 0 0 Z M-61 136.3125 C-63.02251354 141.74800514 -63.92840354 146.72289094 -61.5625 152.1875 C-58.37904405 157.68719459 -53.59530726 160.85806481 -47.875 163.375 C-36.98855239 165.13087865 -26.83879159 164.77753093 -17.3125 158.9375 C-8.57820806 152.1486652 -5.67988573 140.78963123 -4.3125 130.3125 C-4.209375 129.219375 -4.10625 128.12625 -4 127 C-11.3773872 125.04257485 -18.26021275 124.66549194 -25.875 124.6875 C-26.98230469 124.67138672 -28.08960938 124.65527344 -29.23046875 124.63867188 C-41.25339162 124.63160788 -52.80203821 126.83360668 -61 136.3125 Z " fill="#000000" transform="translate(163,4)"/>
</svg>
